<?xml version="1.0" standalone="no"?><!DOCTYPE svg PUBLIC "-//W3C//DTD SVG 1.1//EN" "http://www.w3.org/Graphics/SVG/1.1/DTD/svg11.dtd"><svg t="1729054964603" class="icon" viewBox="0 0 1024 1024" version="1.1" xmlns="http://www.w3.org/2000/svg" p-id="1467" xmlns:xlink="http://www.w3.org/1999/xlink" width="200" height="200"><path d="M757.76 1.024H105.984v139.776H0V512h105.984v510.464h830.464V166.4L757.76 1.024zM131.072 350.208v68.096h-36.864V237.568H153.6c22.528 0 36.864 1.024 43.52 2.56 10.24 2.56 18.944 8.704 26.112 17.408 7.168 9.216 10.752 20.992 10.752 35.328 0 11.264-2.048 20.48-6.144 27.648-4.096 7.68-9.216 13.824-15.36 17.92-6.144 4.096-12.288 7.168-18.944 8.192-8.704 1.536-21.504 2.56-37.888 2.56h-24.576z m744.96 612.864H165.888v-450.56h505.856V141.312H166.4V60.928h568.32c14.336 13.312 125.952 116.736 141.824 131.584-0.512 24.064-0.512 716.288-0.512 770.56zM264.192 418.304V237.568h67.072c15.36 0 26.624 1.024 34.816 3.584 10.752 3.072 19.968 8.704 27.136 16.896 7.68 7.68 13.312 17.408 17.408 29.184 4.096 11.776 6.144 25.6 6.144 42.496 0 14.848-2.048 27.648-5.632 38.4-4.608 13.312-11.264 24.064-19.456 31.744-6.656 6.144-14.848 11.264-25.6 14.336-8.192 2.56-18.944 4.096-32.768 4.096H264.192z m296.448-107.52v30.208H484.352v76.8h-36.864V237.568h124.928v30.72H484.352v42.496h76.288z m-182.272 17.408c0-13.824-1.024-24.576-3.584-31.744-2.56-7.68-6.144-13.312-10.752-17.408-4.608-4.096-10.24-7.168-16.896-8.704-5.12-1.024-15.36-1.536-30.208-1.536h-16.384v119.296H327.68c10.24 0 17.408-0.512 22.016-1.536 6.144-1.536 10.752-4.096 14.848-7.68 4.096-3.584 7.168-9.216 9.728-17.408 3.072-8.704 4.096-19.456 4.096-33.28z m-188.416-50.688c-4.096-4.096-8.704-6.656-14.848-8.192-4.096-1.024-13.312-1.024-26.112-1.024h-17.408v51.2h19.968c14.336 0 24.064-1.024 29.184-3.072 4.608-2.048 8.704-4.608 11.776-8.704 2.56-4.096 4.096-8.704 4.096-13.824-1.024-6.656-2.56-12.288-6.656-16.384z" p-id="1468" fill="#2c2c2c"></path><path d="M297.984 748.544c-25.088 2.56-36.352-6.656-32.768-28.16V650.24c-0.512-12.8 6.144-19.456 20.48-19.456H424.96c13.824 0 20.48 6.144 20.48 18.432v34.816c0 12.8-7.168 19.456-21.504 19.456H294.4v10.752c-0.512 5.12 2.048 7.68 8.704 6.656h128c10.24 1.536 15.36-4.608 14.336-17.408 0.512-8.192 5.12-12.8 13.824-13.824 7.68 1.536 11.776 6.656 12.8 15.36 0.512 30.208-12.8 44.544-40.96 42.496 3.072 2.048 4.608 5.632 4.608 11.776h23.04c7.168 0.512 10.752 5.12 11.776 13.824-0.512 9.216-4.608 13.824-11.776 13.824h-23.04v38.912c0 10.752-4.096 18.432-11.776 22.528-10.752 4.096-29.184 4.608-54.272 2.048-9.728-2.56-14.336-7.68-14.336-15.36 2.048-7.168 7.68-10.752 17.408-10.752 16.896 1.536 26.112 1.536 28.16 1.024 3.072 0 4.608-1.536 4.608-4.608v-32.768H306.688c8.192 9.728 15.36 18.944 20.48 28.16 4.608 7.68 3.584 13.824-3.072 18.432-8.192 4.608-15.36 3.584-20.48-3.072-2.048-3.072-8.192-11.776-19.456-25.088-0.512-0.512-1.024-1.536-1.024-2.048-5.12-6.656-5.12-11.776 0-16.384h-24.064c-7.68 0-11.776-4.608-12.8-13.824 0.512-8.192 4.608-12.8 12.8-13.824h146.432c-0.512-5.632 1.536-9.728 6.656-11.776H297.984z m115.712-70.144c2.048 0 3.072-1.024 3.072-3.072v-16.384c-0.512-1.536-1.536-2.048-3.072-3.072H296.96c-2.048 0.512-3.072 1.536-3.072 3.072v19.456h119.808zM658.944 706.56v-66.56c0-8.192 4.608-12.8 14.336-13.824 9.728 0.512 14.848 5.12 15.36 13.824v66.56h48.64c4.096 0.512 5.632-1.536 5.632-6.656v-43.52c0-7.68 4.608-11.776 13.824-12.8 9.216 1.536 13.824 5.632 14.336 13.824v58.368c0 13.824-7.68 19.968-22.528 19.456h-59.904v83.456h52.224c4.608 0 7.168-2.56 7.68-7.68v-50.176c0-7.68 4.608-11.776 13.824-12.8 9.216 0.512 13.824 4.608 14.336 12.8v64c1.536 14.848-5.632 21.504-20.48 20.48h-160.768c-16.896 0-24.576-6.144-23.04-18.432V762.88c0-7.68 4.608-11.776 13.824-12.8 9.216 0.512 13.824 4.608 14.336 12.8v47.616c-0.512 6.656 1.536 9.216 6.656 8.704h51.2v-83.456h-61.952c-14.848 1.536-21.504-5.632-19.456-21.504v-56.32c0-8.192 4.608-12.8 13.824-13.824 9.216 0.512 13.824 5.12 14.336 13.824v41.472c-0.512 5.632 1.536 8.192 6.656 7.68h47.104z" p-id="1469" fill="#2c2c2c"></path></svg>