<?xml version="1.0" standalone="no"?><!DOCTYPE svg PUBLIC "-//W3C//DTD SVG 1.1//EN" "http://www.w3.org/Graphics/SVG/1.1/DTD/svg11.dtd"><svg t="1729173446040" class="icon" viewBox="0 0 1024 1024" version="1.1" xmlns="http://www.w3.org/2000/svg" p-id="36214" xmlns:xlink="http://www.w3.org/1999/xlink" width="200" height="200"><path d="M116.968727 11.636364h790.132364C965.213091 11.636364 1012.363636 58.856727 1012.363636 116.968727v790.132364C1012.363636 965.213091 965.213091 1012.363636 907.031273 1012.363636H116.968727C58.856727 1012.363636 11.636364 965.213091 11.636364 907.031273V116.968727C11.636364 58.856727 58.856727 11.636364 116.968727 11.636364z m0 73.728a31.604364 31.604364 0 0 0-31.604363 31.604363v790.132364a31.616 31.616 0 0 0 31.604363 31.534545h790.132364a31.604364 31.604364 0 0 0 31.534545-31.604363V116.968727c0-17.454545-14.149818-31.604364-31.604363-31.604363H116.968727z" fill="#2c2c2c" p-id="36215"></path><path d="M235.054545 642.327273V837.818182H186.181818V593.454545h651.636364v244.363637h-48.872727V642.327273H235.054545z m0-260.654546V186.181818H186.181818v244.363637h651.636364V186.181818h-48.872727v195.490909H235.054545z m-21.72509 105.890909h108.613818v48.872728h-108.613818v-48.872728z m162.90909 0h108.613819v48.872728h-108.613819v-48.872728z m162.909091 0h108.613819v48.872728h-108.613819v-48.872728z m162.909091 0h108.613818v48.872728h-108.613818v-48.872728z" fill="#2c2c2c" p-id="36216"></path></svg>